<svg xmlns="http://www.w3.org/2000/svg" width="516" height="162" viewBox="0 0 516 162">
    <defs>
      <filter id="subtitleShadow" x="-25%" y="-25%" width="150%" height="150%">
        <feDropShadow dx="0" dy="2" stdDeviation="1.8" flood-color="#000000" flood-opacity="0.75" />
      </filter>
    </defs>
    <rect x="0" y="0" width="516" height="162" rx="18" ry="18" fill="rgba(0,0,0,0.72)" />
    <path d="M345.49 47.82 L346 41.14 L349.9 41.14 L349.26 47.86 Q348.95 51.29 348.43 52.82 Q347.91 54.34 346.88 55.17 Q345.86 56.01 343.48 56.64 L343.48 56.64 L340.4 57.36 L341.41 62.65 L341.9 62.65 Q346.02 62.65 348.5 62.17 Q350.98 61.69 352.42 60.66 Q353.85 59.63 354.64 57.76 Q355.43 55.88 355.9 51.9 L355.9 51.9 L357.2 41.14 L361.15 41.14 L359.84 51.76 Q359.21 57.13 358.04 59.73 Q356.87 62.32 354.74 63.75 Q352.6 65.17 348.86 65.82 Q345.12 66.46 338.14 66.51 L338.14 66.51 L333.35 41.14 L337.26 41.14 L339.79 54.08 L341.28 53.79 Q343.5 53.3 344.38 52.06 Q345.26 50.82 345.49 47.82 L345.49 47.82 Z M314.01 67.22 L314.01 62.98 Q317.92 61.52 320.73 59.3 Q323.54 57.07 325.01 54.45 Q326.48 51.82 326.48 49.11 L326.48 49.11 Q326.48 44.62 321.68 44.62 L321.68 44.62 L311.48 44.62 L311.48 32.15 L315.26 32.15 L315.26 41.14 L322.07 41.14 Q330.29 41.14 330.29 48.46 L330.29 48.46 Q330.29 54.45 325.88 59.5 Q321.47 64.56 314.01 67.22 L314.01 67.22 Z M302.71 66.3 L302.71 41.14 L306.48 41.14 L306.48 66.3 L302.71 66.3 Z M295.78 51.55 L295.78 66.3 L274.22 66.3 L274.22 41.14 L285.23 41.14 Q290.89 41.14 293.33 43.56 Q295.78 45.98 295.78 51.55 L295.78 51.55 Z M285.19 44.62 L278 44.62 L278 62.81 L291.98 62.81 L291.98 51.51 Q291.98 47.78 290.47 46.2 Q288.97 44.62 285.19 44.62 L285.19 44.62 Z M240.69 67.22 L240.69 62.98 Q244.61 61.52 247.42 59.3 Q250.23 57.07 251.69 54.45 Q253.16 51.82 253.16 49.11 L253.16 49.11 Q253.16 44.62 248.36 44.62 L248.36 44.62 L238.17 44.62 L238.17 32.15 L241.94 32.15 L241.94 41.14 L248.75 41.14 Q256.97 41.14 256.97 48.46 L256.97 48.46 Q256.97 54.45 252.57 59.5 Q248.16 64.56 240.69 67.22 L240.69 67.22 Z M234.44 53.36 L234.44 54.08 Q234.44 66.3 222.87 66.3 L222.87 66.3 L216.33 66.3 L216.33 62.81 L222.95 62.81 Q226.87 62.81 228.74 60.64 Q230.6 58.47 230.6 54.12 L230.6 54.12 L230.6 53.32 Q230.6 48.95 228.73 46.79 Q226.85 44.62 222.95 44.62 L222.95 44.62 L216.33 44.62 L216.33 41.14 L222.87 41.14 Q234.44 41.14 234.44 53.36 L234.44 53.36 Z M207.35 66.3 L207.35 41.14 L211.12 41.14 L211.12 66.3 L207.35 66.3 Z M185.48 67.22 L185.48 62.98 Q189.4 61.52 192.21 59.3 Q195.02 57.07 196.49 54.45 Q197.95 51.82 197.95 49.11 L197.95 49.11 Q197.95 44.62 193.15 44.62 L193.15 44.62 L182.96 44.62 L182.96 32.15 L186.74 32.15 L186.74 41.14 L193.54 41.14 Q201.77 41.14 201.77 48.46 L201.77 48.46 Q201.77 54.45 197.36 59.5 Q192.95 64.56 185.48 67.22 L185.48 67.22 Z M178.16 51.55 L178.16 66.3 L156.61 66.3 L156.61 41.14 L167.62 41.14 Q173.28 41.14 175.72 43.56 Q178.16 45.98 178.16 51.55 L178.16 51.55 Z M167.58 44.62 L160.38 44.62 L160.38 62.81 L174.37 62.81 L174.37 51.51 Q174.37 47.78 172.86 46.2 Q171.35 44.62 167.58 44.62 L167.58 44.62 Z" fill="none" stroke="#000000" stroke-width="3.2" stroke-linejoin="round" stroke-linecap="round" filter="url(#subtitleShadow)" /><path d="M380.66 123 L380.66 97.84 L384.43 97.84 L384.43 123 L380.66 123 Z M362.3 101.32 L354.61 101.32 L354.61 97.84 L362.34 97.84 Q368 97.84 370.44 100.26 Q372.88 102.68 372.88 108.25 L372.88 108.25 L372.88 119.51 L375.61 119.51 L375.61 123 L353.65 123 L353.65 119.51 L369.11 119.51 L369.11 108.21 Q369.11 104.44 367.58 102.88 Q366.06 101.32 362.3 101.32 L362.3 101.32 Z M348.6 108.25 L348.6 123 L344.81 123 L344.81 108.21 Q344.81 104.48 343.3 102.9 Q341.79 101.32 338.02 101.32 L338.02 101.32 L330.33 101.32 L330.33 97.84 L338.06 97.84 Q343.72 97.84 346.16 100.26 Q348.6 102.68 348.6 108.25 L348.6 108.25 Z M322.19 123 L322.19 97.84 L325.96 97.84 L325.96 123 L322.19 123 Z M316.32 110.06 L316.32 110.78 Q316.32 123 304.76 123 L304.76 123 L298.22 123 L298.22 119.51 L304.84 119.51 Q308.76 119.51 310.62 117.34 Q312.49 115.17 312.49 110.82 L312.49 110.82 L312.49 110.02 Q312.49 105.65 310.61 103.49 Q308.74 101.32 304.84 101.32 L304.84 101.32 L298.22 101.32 L298.22 97.84 L304.76 97.84 Q316.32 97.84 316.32 110.06 L316.32 110.06 Z M289.23 111.06 L289.23 97.84 L293.01 97.84 L293.01 111.06 L289.23 111.06 Z M282.3 108.25 L282.3 123 L260.75 123 L260.75 97.84 L271.76 97.84 Q277.42 97.84 279.86 100.26 Q282.3 102.68 282.3 108.25 L282.3 108.25 Z M271.72 101.32 L264.52 101.32 L264.52 119.51 L278.51 119.51 L278.51 108.21 Q278.51 104.48 277 102.9 Q275.49 101.32 271.72 101.32 L271.72 101.32 Z M226.19 106.66 L226.19 123 L222.42 123 L222.42 106.66 L226.19 106.66 Z M242.17 108.25 L242.17 123 L238.37 123 L238.37 108.21 Q238.37 104.44 236.85 102.88 Q235.32 101.32 231.57 101.32 L231.57 101.32 L222.01 101.32 L222.01 97.84 L231.63 97.84 Q237.29 97.84 239.73 100.26 Q242.17 102.68 242.17 108.25 L242.17 108.25 Z M204.11 101.32 L196.42 101.32 L196.42 97.84 L204.15 97.84 Q209.81 97.84 212.25 100.26 Q214.69 102.68 214.69 108.25 L214.69 108.25 L214.69 119.51 L217.42 119.51 L217.42 123 L195.45 123 L195.45 119.51 L210.91 119.51 L210.91 108.21 Q210.91 104.44 209.39 102.88 Q207.86 101.32 204.11 101.32 L204.11 101.32 Z M175.89 105.96 L169.96 97.84 L174.62 97.84 L183.86 110.57 Q186.94 107.7 187.51 102.41 L187.51 102.41 L187.99 97.84 L191.88 97.84 L191.41 102.33 Q191.21 104.52 190.59 106.29 Q189.98 108.05 188.96 109.59 Q187.95 111.13 185.83 113.22 L185.83 113.22 L193.24 123 L188.44 123 L177.61 108.3 Q176.73 108.73 176.18 109.37 Q175.64 110.02 175.26 111.06 Q174.88 112.11 174.37 114.74 L174.37 114.74 L172.73 123 L168.75 123 L170.47 114.82 Q171.21 111.31 171.83 109.85 Q172.44 108.4 173.37 107.5 Q174.31 106.59 175.89 105.96 L175.89 105.96 Z M160.05 111.06 L160.05 97.84 L163.83 97.84 L163.83 111.06 L160.05 111.06 Z M153.12 108.25 L153.12 123 L131.57 123 L131.57 97.84 L142.58 97.84 Q148.24 97.84 150.68 100.26 Q153.12 102.68 153.12 108.25 L153.12 108.25 Z M142.54 101.32 L135.34 101.32 L135.34 119.51 L149.33 119.51 L149.33 108.21 Q149.33 104.48 147.82 102.9 Q146.31 101.32 142.54 101.32 L142.54 101.32 Z" fill="none" stroke="#000000" stroke-width="3.2" stroke-linejoin="round" stroke-linecap="round" filter="url(#subtitleShadow)" />
    <path d="M345.49 47.82 L346 41.14 L349.9 41.14 L349.26 47.86 Q348.95 51.29 348.43 52.82 Q347.91 54.34 346.88 55.17 Q345.86 56.01 343.48 56.64 L343.48 56.64 L340.4 57.36 L341.41 62.65 L341.9 62.65 Q346.02 62.65 348.5 62.17 Q350.98 61.69 352.42 60.66 Q353.85 59.63 354.64 57.76 Q355.43 55.88 355.9 51.9 L355.9 51.9 L357.2 41.14 L361.15 41.14 L359.84 51.76 Q359.21 57.13 358.04 59.73 Q356.87 62.32 354.74 63.75 Q352.6 65.17 348.86 65.82 Q345.12 66.46 338.14 66.51 L338.14 66.51 L333.35 41.14 L337.26 41.14 L339.79 54.08 L341.28 53.79 Q343.5 53.3 344.38 52.06 Q345.26 50.82 345.49 47.82 L345.49 47.82 Z M314.01 67.22 L314.01 62.98 Q317.92 61.52 320.73 59.3 Q323.54 57.07 325.01 54.45 Q326.48 51.82 326.48 49.11 L326.48 49.11 Q326.48 44.62 321.68 44.62 L321.68 44.62 L311.48 44.62 L311.48 32.15 L315.26 32.15 L315.26 41.14 L322.07 41.14 Q330.29 41.14 330.29 48.46 L330.29 48.46 Q330.29 54.45 325.88 59.5 Q321.47 64.56 314.01 67.22 L314.01 67.22 Z M302.71 66.3 L302.71 41.14 L306.48 41.14 L306.48 66.3 L302.71 66.3 Z M295.78 51.55 L295.78 66.3 L274.22 66.3 L274.22 41.14 L285.23 41.14 Q290.89 41.14 293.33 43.56 Q295.78 45.98 295.78 51.55 L295.78 51.55 Z M285.19 44.62 L278 44.62 L278 62.81 L291.98 62.81 L291.98 51.51 Q291.98 47.78 290.47 46.2 Q288.97 44.62 285.19 44.62 L285.19 44.62 Z M240.69 67.22 L240.69 62.98 Q244.61 61.52 247.42 59.3 Q250.23 57.07 251.69 54.45 Q253.16 51.82 253.16 49.11 L253.16 49.11 Q253.16 44.62 248.36 44.62 L248.36 44.62 L238.17 44.62 L238.17 32.15 L241.94 32.15 L241.94 41.14 L248.75 41.14 Q256.97 41.14 256.97 48.46 L256.97 48.46 Q256.97 54.45 252.57 59.5 Q248.16 64.56 240.69 67.22 L240.69 67.22 Z M234.44 53.36 L234.44 54.08 Q234.44 66.3 222.87 66.3 L222.87 66.3 L216.33 66.3 L216.33 62.81 L222.95 62.81 Q226.87 62.81 228.74 60.64 Q230.6 58.47 230.6 54.12 L230.6 54.12 L230.6 53.32 Q230.6 48.95 228.73 46.79 Q226.85 44.62 222.95 44.62 L222.95 44.62 L216.33 44.62 L216.33 41.14 L222.87 41.14 Q234.44 41.14 234.44 53.36 L234.44 53.36 Z M207.35 66.3 L207.35 41.14 L211.12 41.14 L211.12 66.3 L207.35 66.3 Z M185.48 67.22 L185.48 62.98 Q189.4 61.52 192.21 59.3 Q195.02 57.07 196.49 54.45 Q197.95 51.82 197.95 49.11 L197.95 49.11 Q197.95 44.62 193.15 44.62 L193.15 44.62 L182.96 44.62 L182.96 32.15 L186.74 32.15 L186.74 41.14 L193.54 41.14 Q201.77 41.14 201.77 48.46 L201.77 48.46 Q201.77 54.45 197.36 59.5 Q192.95 64.56 185.48 67.22 L185.48 67.22 Z M178.16 51.55 L178.16 66.3 L156.61 66.3 L156.61 41.14 L167.62 41.14 Q173.28 41.14 175.72 43.56 Q178.16 45.98 178.16 51.55 L178.16 51.55 Z M167.58 44.62 L160.38 44.62 L160.38 62.81 L174.37 62.81 L174.37 51.51 Q174.37 47.78 172.86 46.2 Q171.35 44.62 167.58 44.62 L167.58 44.62 Z" fill="#FFFFFF" /><path d="M380.66 123 L380.66 97.84 L384.43 97.84 L384.43 123 L380.66 123 Z M362.3 101.32 L354.61 101.32 L354.61 97.84 L362.34 97.84 Q368 97.84 370.44 100.26 Q372.88 102.68 372.88 108.25 L372.88 108.25 L372.88 119.51 L375.61 119.51 L375.61 123 L353.65 123 L353.65 119.51 L369.11 119.51 L369.11 108.21 Q369.11 104.44 367.58 102.88 Q366.06 101.32 362.3 101.32 L362.3 101.32 Z M348.6 108.25 L348.6 123 L344.81 123 L344.81 108.21 Q344.81 104.48 343.3 102.9 Q341.79 101.32 338.02 101.32 L338.02 101.32 L330.33 101.32 L330.33 97.84 L338.06 97.84 Q343.72 97.84 346.16 100.26 Q348.6 102.68 348.6 108.25 L348.6 108.25 Z M322.19 123 L322.19 97.84 L325.96 97.84 L325.96 123 L322.19 123 Z M316.32 110.06 L316.32 110.78 Q316.32 123 304.76 123 L304.76 123 L298.22 123 L298.22 119.51 L304.84 119.51 Q308.76 119.51 310.62 117.34 Q312.49 115.17 312.49 110.82 L312.49 110.82 L312.49 110.02 Q312.49 105.65 310.61 103.49 Q308.74 101.32 304.84 101.32 L304.84 101.32 L298.22 101.32 L298.22 97.84 L304.76 97.84 Q316.32 97.84 316.32 110.06 L316.32 110.06 Z M289.23 111.06 L289.23 97.84 L293.01 97.84 L293.01 111.06 L289.23 111.06 Z M282.3 108.25 L282.3 123 L260.75 123 L260.75 97.84 L271.76 97.84 Q277.42 97.84 279.86 100.26 Q282.3 102.68 282.3 108.25 L282.3 108.25 Z M271.72 101.32 L264.52 101.32 L264.52 119.51 L278.51 119.51 L278.51 108.21 Q278.51 104.48 277 102.9 Q275.49 101.32 271.72 101.32 L271.72 101.32 Z M226.19 106.66 L226.19 123 L222.42 123 L222.42 106.66 L226.19 106.66 Z M242.17 108.25 L242.17 123 L238.37 123 L238.37 108.21 Q238.37 104.44 236.85 102.88 Q235.32 101.32 231.57 101.32 L231.57 101.32 L222.01 101.32 L222.01 97.84 L231.63 97.84 Q237.29 97.84 239.73 100.26 Q242.17 102.68 242.17 108.25 L242.17 108.25 Z M204.11 101.32 L196.42 101.32 L196.42 97.84 L204.15 97.84 Q209.81 97.84 212.25 100.26 Q214.69 102.68 214.69 108.25 L214.69 108.25 L214.69 119.51 L217.42 119.51 L217.42 123 L195.45 123 L195.45 119.51 L210.91 119.51 L210.91 108.21 Q210.91 104.44 209.39 102.88 Q207.86 101.32 204.11 101.32 L204.11 101.32 Z M175.89 105.96 L169.96 97.84 L174.62 97.84 L183.86 110.57 Q186.94 107.7 187.51 102.41 L187.51 102.41 L187.99 97.84 L191.88 97.84 L191.41 102.33 Q191.21 104.52 190.59 106.29 Q189.98 108.05 188.96 109.59 Q187.95 111.13 185.83 113.22 L185.83 113.22 L193.24 123 L188.44 123 L177.61 108.3 Q176.73 108.73 176.18 109.37 Q175.64 110.02 175.26 111.06 Q174.88 112.11 174.37 114.74 L174.37 114.74 L172.73 123 L168.75 123 L170.47 114.82 Q171.21 111.31 171.83 109.85 Q172.44 108.4 173.37 107.5 Q174.31 106.59 175.89 105.96 L175.89 105.96 Z M160.05 111.06 L160.05 97.84 L163.83 97.84 L163.83 111.06 L160.05 111.06 Z M153.12 108.25 L153.12 123 L131.57 123 L131.57 97.84 L142.58 97.84 Q148.24 97.84 150.68 100.26 Q153.12 102.68 153.12 108.25 L153.12 108.25 Z M142.54 101.32 L135.34 101.32 L135.34 119.51 L149.33 119.51 L149.33 108.21 Q149.33 104.48 147.82 102.9 Q146.31 101.32 142.54 101.32 L142.54 101.32 Z" fill="#FFFFFF" />
  </svg>